<?xml version="1.0" encoding="UTF-8"?> <svg xmlns="http://www.w3.org/2000/svg" width="512" height="512" viewBox="0 0 512 512" fill="none"><path d="M362.056 205.082C343.942 255.018 281.768 295.555 223.203 295.611C164.629 295.651 131.831 255.23 149.953 205.294C168.067 155.364 230.233 114.835 288.813 114.778C347.372 114.718 380.17 155.152 362.056 205.082" fill="#1C4E9D"></path><path d="M275.305 121.752L271.846 161.546L297.267 121.738L282.59 163.024L316.428 127.396L291.53 167.374L331.444 138.366L298.052 174.298L341.354 153.878L301.709 183.331L345.421 172.898L302.247 193.842L343.412 194.124L299.636 205.144L335.441 216.094L294.049 216.446L322.044 237.319L285.872 226.971L304.17 256.36L275.651 236.017L283.007 271.907L264.115 242.964L259.984 282.913L251.998 247.335L236.713 288.621L240.172 248.834L214.758 288.642L229.421 247.363L195.597 282.984L220.48 243.006L180.566 272.013L213.966 236.082L170.678 256.495L210.316 227.056L166.59 237.475L209.779 216.524L168.613 216.264L212.389 205.237L176.577 194.287L217.976 193.934L189.96 173.061L226.153 183.409L207.855 154.02L236.36 174.356L229.018 138.474L247.91 167.424L252.027 127.461L260.012 163.039L275.305 121.752Z" fill="#F9E20E"></path><path d="M222.949 205.226C216.336 223.453 225.778 238.272 244.006 238.264C262.241 238.244 282.449 223.389 289.069 205.155C295.683 186.927 286.233 172.102 268.005 172.123C249.778 172.143 229.562 186.998 222.949 205.226ZM225.934 205.219C231.946 188.632 250.336 175.122 266.93 175.108C283.517 175.094 292.103 188.568 286.077 205.162C280.051 221.749 261.675 235.258 245.088 235.273C228.523 235.287 219.915 221.812 225.934 205.219Z" fill="white"></path><path d="M165.913 205.153C183.653 156.256 237.246 116.307 286.284 114.977C287.091 114.963 287.89 114.937 288.696 114.937C295.529 114.93 302.015 115.46 308.141 116.473C310.468 116.876 312.752 117.335 315.079 117.886C318.588 118.743 321.983 119.761 325.215 120.935C306.945 110.693 273.581 108.62 248.606 113.565C194.361 124.302 147.41 164.025 131 205.184L165.913 205.153Z" fill="#4BA3E0"></path><path d="M346.101 205.234H346.094C328.361 254.13 274.761 294.08 225.722 295.402C224.923 295.422 224.117 295.442 223.31 295.442C216.478 295.45 209.992 294.911 203.866 293.915C201.532 293.511 199.248 293.038 196.935 292.493C193.405 291.637 190.024 290.618 186.785 289.445C205.062 299.686 238.426 301.759 263.394 296.822C317.631 286.085 364.597 246.355 380.993 205.196H381L346.101 205.234Z" fill="#87CF2E"></path><path d="M81.5557 354.672C81.5505 351.947 80.2293 349.872 77.6075 348.437C75.2439 347.153 72.1266 346.517 68.2507 346.522C66.4082 346.522 64.9633 346.654 63.9155 346.914L59.1159 367.233C60.2204 367.379 61.3093 367.46 62.3673 367.46C68.0753 367.455 72.6995 366.308 76.2502 364.023C79.7905 361.731 81.5607 358.614 81.5557 354.671V354.672ZM99.9183 398.813C96.3727 399.38 92.8582 399.664 89.3797 399.664C86.1592 399.669 83.7439 398.921 82.1389 397.409C80.5286 395.897 78.0411 392.005 74.6968 385.76C71.5331 379.867 68.9681 376.094 67.0018 374.453C65.0252 372.817 62.0628 372.001 58.1353 372.006L53.2324 393.084C53.031 393.915 52.9383 394.678 52.9383 395.396C52.9383 396.939 53.4543 398.245 54.5174 399.323L36 399.338C38.0952 398.209 39.4113 396.51 39.9326 394.249L50.817 347.151C50.9461 346.583 51.013 345.922 51.013 345.148C51.013 343.811 50.4146 342.795 49.2378 342.072L71.2957 342.057C79.2487 342.047 85.3799 343.199 89.7203 345.5C93.6632 347.6 95.6347 350.392 95.6399 353.881C95.6451 358.449 93.0801 362.273 87.9656 365.354C83.6407 367.971 78.3558 369.674 72.1111 370.448C75.3986 370.85 78.2476 372.373 80.6835 374.984C82.2628 376.626 84.0433 379.309 86.0148 383.051C89.2352 389.161 91.6969 393.156 93.4104 395.086C95.1187 397.006 97.2915 398.25 99.9183 398.812V398.813ZM172.365 359.343C170.455 360.582 168.066 363.581 165.186 368.365L146.792 399.227L140.001 399.232L135.247 372.767L118.232 399.258L111.641 399.269L108.158 367.88C107.827 365 107.512 363.054 107.213 362.022C106.924 361.005 106.336 360.133 105.489 359.416L120.064 359.401C118.82 360.073 118.196 361.192 118.196 362.787C118.196 363.607 118.263 364.634 118.397 365.863L120.585 386.099L137.792 359.38L143.211 359.375L148.062 385.918L159.664 366.518C161.372 363.643 162.219 361.61 162.219 360.428C162.219 359.922 162.022 359.566 161.625 359.364L172.365 359.343ZM206.245 365.929C204.475 363.824 202.039 362.781 198.963 362.781C193.906 362.786 189.772 365.589 186.556 371.178C184.002 375.751 182.722 380.493 182.727 385.417C182.732 391.011 185.359 393.804 190.618 393.798C192.321 393.798 194.231 393.2 196.326 392.023C198.23 390.945 199.835 389.685 201.157 388.245L206.245 365.929ZM219.153 359.297L211.396 393.009C211.076 394.444 210.906 395.465 210.906 396.085C210.906 397.623 212.222 398.65 214.844 399.155C211.768 399.625 208.908 399.858 206.281 399.858C204.052 399.858 202.54 399.755 201.755 399.558C200.181 399.196 199.392 398.376 199.392 397.096V395.403C195.284 398.794 190.484 400.492 185.003 400.497C180.053 400.507 176.203 399.047 173.463 396.121C170.975 393.406 169.732 389.788 169.732 385.277C169.721 379.074 172.307 373.17 177.488 367.57C183.398 361.212 190.685 358.017 199.345 358.007C203.35 358.007 206.73 358.997 209.492 361L213.435 359.302L219.153 359.297ZM273.815 366.477C273.815 367.752 273.495 369.811 272.84 372.634L268.133 393.103C267.87 394.233 267.736 395.214 267.736 396.029C267.736 397.567 269.083 398.594 271.777 399.1C268.628 399.563 265.078 399.796 261.14 399.806C257.925 399.806 256.309 398.857 256.309 396.963C256.309 396.452 256.567 395.037 257.099 392.725L261.615 372.954C262.064 370.843 262.296 369.315 262.291 368.335C262.291 365.873 260.675 364.639 257.465 364.645C253.909 364.65 249.879 366.472 245.363 370.115L240.351 392.436C239.964 394.186 239.768 395.388 239.768 396.054C239.768 397.236 240.321 398.263 241.446 399.135L224.905 399.15C227 397.864 228.409 395.682 229.126 392.606L235.304 365.356C235.5 364.489 235.593 363.663 235.593 362.889C235.593 360.897 234.974 359.689 233.72 359.281L247.902 359.267L246.927 363.427C248.95 361.987 251.355 360.728 254.111 359.649C257.192 358.514 259.943 357.951 262.378 357.951C269.991 357.941 273.81 360.779 273.815 366.477L273.815 366.477ZM317.546 365.812C315.962 363.712 313.557 362.669 310.352 362.669C305.356 362.674 301.258 365.373 298.048 370.761C295.36 375.329 294.012 380.175 294.023 385.3C294.028 390.894 296.655 393.686 301.909 393.686C305.516 393.681 309 391.906 312.344 388.371L317.546 365.812ZM334.552 340.095L322.682 392.123C322.367 393.568 322.197 394.822 322.202 395.895C322.196 397.387 323.487 398.434 326.046 399.054C322.96 399.513 320.168 399.746 317.676 399.746C315.111 399.746 313.34 399.599 312.355 399.292C311.178 398.88 310.584 398.116 310.584 396.985C310.584 396.526 310.678 395.963 310.868 395.293C306.548 398.683 301.785 400.381 296.598 400.386C291.411 400.391 287.463 398.91 284.78 395.938C282.282 393.28 281.028 389.677 281.022 385.167C281.017 378.757 283.696 372.749 289.084 367.155C294.983 360.998 302.1 357.906 310.445 357.896C313.861 357.891 316.654 358.582 318.821 359.966L322.047 346.423C322.377 345.035 322.537 344.06 322.537 343.497C322.537 342.011 321.918 340.886 320.669 340.117L334.552 340.095ZM381.566 374.833L375.631 351.443L358.518 374.931C360.618 375.133 364.561 375.262 370.341 375.297C372.834 375.238 376.576 375.08 381.567 374.833H381.566ZM401.39 398.971L384.746 398.985C385.922 398.522 386.516 397.752 386.516 396.678C386.511 396.111 386.381 395.29 386.119 394.217L382.568 380.365C379.012 380.065 374.646 379.915 369.454 379.921C363.477 379.926 358.487 380.081 354.492 380.395C353.765 381.376 350.456 385.892 344.557 393.953C343.18 395.852 342.488 397.127 342.488 397.798C342.488 398.263 342.891 398.67 343.675 399.031L331.454 399.042C333.1 398.066 335.01 396.09 337.167 393.107L371.689 345.837C372.535 344.651 372.974 343.722 372.969 343.061C372.969 342.446 372.509 342.007 371.591 341.75L385.277 341.74L398.226 393.974C398.82 396.487 399.878 398.149 401.39 398.97L401.39 398.971ZM436.102 345.073C436.107 346.513 435.462 347.721 434.187 348.691C432.902 349.671 431.379 350.157 429.609 350.157C427.823 350.162 426.311 349.677 425.026 348.701C423.741 347.731 423.101 346.523 423.101 345.089C423.101 343.7 423.731 342.508 425.021 341.502C426.296 340.511 427.823 340 429.604 340C431.374 340 432.891 340.5 434.182 341.497C435.462 342.497 436.102 343.69 436.102 345.073V345.073ZM431.988 359.08L424.52 392.017C424.071 394.025 423.839 395.305 423.844 395.872C423.839 397.308 425.124 398.329 427.684 398.943C425.454 399.407 422.105 399.64 417.636 399.645C414.162 399.65 412.423 398.655 412.423 396.652C412.413 396.141 412.614 395.006 413.001 393.266L419.38 365.335C419.638 364.194 419.772 363.245 419.767 362.481C419.767 360.784 419.142 359.658 417.899 359.096L431.988 359.08ZM476 358.801L475.319 369.118C473.156 366.867 470.493 365.742 467.345 365.742C463.598 365.748 460.027 367.466 456.615 370.903L451.413 392.92C451.083 394.298 450.928 395.227 450.928 395.686C450.933 397.126 451.491 398.205 452.605 398.917L436.157 398.932C438.325 397.801 439.729 395.773 440.384 392.847L446.753 365.143C447.011 364.008 447.14 363.011 447.14 362.134C447.14 360.653 446.557 359.626 445.375 359.063L459.16 359.049L457.983 364.359C462.122 359.941 466.375 357.733 470.787 357.727C472.676 357.727 474.426 358.089 476 358.795" fill="#1C4E9D"></path></svg> 